<mxfile host="www.draw.io" modified="2020-02-02T13:56:17.986Z" agent="Mozilla/5.0 (Macintosh; Intel Mac OS X 10_15_3) AppleWebKit/537.36 (KHTML, like Gecko) Chrome/79.0.3945.130 Safari/537.36" etag="1CqMUYq5j-PmNTLpm4dh" version="12.6.2" type="github">
  <diagram id="dnBn-FYtyDMeDjQ6ELv7" name="Page-1">
    <mxGraphModel dx="906" dy="590" grid="1" gridSize="10" guides="1" tooltips="1" connect="1" arrows="1" fold="1" page="1" pageScale="1" pageWidth="827" pageHeight="1169" math="0" shadow="0">
      <root>
        <mxCell id="0"/>
        <mxCell id="1" parent="0"/>
        <mxCell id="cW-CTBnFJo4A0TMFKXhD-1" value="" style="rounded=0;whiteSpace=wrap;html=1;dashed=1;" vertex="1" parent="1">
          <mxGeometry x="530" y="320" width="390" height="200" as="geometry"/>
        </mxCell>
        <mxCell id="izNpCmF7ZaAeabUgXrtP-11" style="edgeStyle=orthogonalEdgeStyle;rounded=0;orthogonalLoop=1;jettySize=auto;html=1;entryX=0.5;entryY=1;entryDx=0;entryDy=0;" parent="1" source="izNpCmF7ZaAeabUgXrtP-1" target="izNpCmF7ZaAeabUgXrtP-4" edge="1">
          <mxGeometry relative="1" as="geometry"/>
        </mxCell>
        <mxCell id="izNpCmF7ZaAeabUgXrtP-1" value="智云OLAP" style="rounded=0;whiteSpace=wrap;html=1;fillColor=#f5f5f5;strokeColor=#666666;fontColor=#333333;" parent="1" vertex="1">
          <mxGeometry x="340" y="400" width="120" height="60" as="geometry"/>
        </mxCell>
        <mxCell id="izNpCmF7ZaAeabUgXrtP-10" style="edgeStyle=orthogonalEdgeStyle;rounded=0;orthogonalLoop=1;jettySize=auto;html=1;entryX=0.5;entryY=1;entryDx=0;entryDy=0;" parent="1" source="izNpCmF7ZaAeabUgXrtP-3" target="izNpCmF7ZaAeabUgXrtP-1" edge="1">
          <mxGeometry relative="1" as="geometry"/>
        </mxCell>
        <mxCell id="izNpCmF7ZaAeabUgXrtP-33" style="edgeStyle=orthogonalEdgeStyle;rounded=0;orthogonalLoop=1;jettySize=auto;html=1;entryX=0.5;entryY=1;entryDx=0;entryDy=0;" parent="1" source="izNpCmF7ZaAeabUgXrtP-3" target="izNpCmF7ZaAeabUgXrtP-21" edge="1">
          <mxGeometry relative="1" as="geometry"/>
        </mxCell>
        <mxCell id="izNpCmF7ZaAeabUgXrtP-3" value="警情数据库" style="shape=cylinder;whiteSpace=wrap;html=1;boundedLbl=1;backgroundOutline=1;fillColor=#e51400;strokeColor=#B20000;fontColor=#ffffff;" parent="1" vertex="1">
          <mxGeometry x="570" y="530" width="60" height="80" as="geometry"/>
        </mxCell>
        <mxCell id="izNpCmF7ZaAeabUgXrtP-12" style="edgeStyle=orthogonalEdgeStyle;rounded=0;orthogonalLoop=1;jettySize=auto;html=1;entryX=0.5;entryY=1;entryDx=0;entryDy=0;" parent="1" source="izNpCmF7ZaAeabUgXrtP-4" target="izNpCmF7ZaAeabUgXrtP-9" edge="1">
          <mxGeometry relative="1" as="geometry"/>
        </mxCell>
        <mxCell id="izNpCmF7ZaAeabUgXrtP-4" value="智云数据仓库" style="shape=cylinder;whiteSpace=wrap;html=1;boundedLbl=1;backgroundOutline=1;fillColor=#e3c800;strokeColor=#B09500;fontColor=#ffffff;" parent="1" vertex="1">
          <mxGeometry x="370" y="270" width="60" height="80" as="geometry"/>
        </mxCell>
        <mxCell id="izNpCmF7ZaAeabUgXrtP-16" style="edgeStyle=orthogonalEdgeStyle;rounded=0;orthogonalLoop=1;jettySize=auto;html=1;exitX=0;exitY=0;exitDx=0;exitDy=0;entryX=0.5;entryY=1;entryDx=0;entryDy=0;" parent="1" source="izNpCmF7ZaAeabUgXrtP-9" target="izNpCmF7ZaAeabUgXrtP-13" edge="1">
          <mxGeometry relative="1" as="geometry"/>
        </mxCell>
        <mxCell id="izNpCmF7ZaAeabUgXrtP-17" style="edgeStyle=orthogonalEdgeStyle;rounded=0;orthogonalLoop=1;jettySize=auto;html=1;exitX=0.5;exitY=0;exitDx=0;exitDy=0;entryX=0.5;entryY=1;entryDx=0;entryDy=0;" parent="1" source="izNpCmF7ZaAeabUgXrtP-9" target="izNpCmF7ZaAeabUgXrtP-14" edge="1">
          <mxGeometry relative="1" as="geometry"/>
        </mxCell>
        <mxCell id="izNpCmF7ZaAeabUgXrtP-19" style="edgeStyle=orthogonalEdgeStyle;rounded=0;orthogonalLoop=1;jettySize=auto;html=1;exitX=1;exitY=0;exitDx=0;exitDy=0;entryX=0.5;entryY=1;entryDx=0;entryDy=0;" parent="1" source="izNpCmF7ZaAeabUgXrtP-9" target="izNpCmF7ZaAeabUgXrtP-15" edge="1">
          <mxGeometry relative="1" as="geometry"/>
        </mxCell>
        <mxCell id="izNpCmF7ZaAeabUgXrtP-9" value="智云可视化后端" style="rounded=0;whiteSpace=wrap;html=1;fillColor=#f5f5f5;strokeColor=#666666;fontColor=#333333;" parent="1" vertex="1">
          <mxGeometry x="340" y="170" width="120" height="60" as="geometry"/>
        </mxCell>
        <mxCell id="izNpCmF7ZaAeabUgXrtP-13" value="大屏" style="whiteSpace=wrap;html=1;aspect=fixed;fillColor=#dae8fc;strokeColor=#6c8ebf;" parent="1" vertex="1">
          <mxGeometry x="170" y="10" width="110" height="110" as="geometry"/>
        </mxCell>
        <mxCell id="izNpCmF7ZaAeabUgXrtP-14" value="PC" style="rounded=0;whiteSpace=wrap;html=1;fillColor=#dae8fc;strokeColor=#6c8ebf;" parent="1" vertex="1">
          <mxGeometry x="340" y="18.75" width="120" height="60" as="geometry"/>
        </mxCell>
        <mxCell id="izNpCmF7ZaAeabUgXrtP-15" value="移动" style="rounded=1;whiteSpace=wrap;html=1;rotation=0;fillColor=#dae8fc;strokeColor=#6c8ebf;" parent="1" vertex="1">
          <mxGeometry x="540" y="18.75" width="40" height="92.5" as="geometry"/>
        </mxCell>
        <mxCell id="izNpCmF7ZaAeabUgXrtP-34" style="edgeStyle=orthogonalEdgeStyle;rounded=0;orthogonalLoop=1;jettySize=auto;html=1;entryX=1;entryY=0.5;entryDx=0;entryDy=0;" parent="1" source="izNpCmF7ZaAeabUgXrtP-20" target="izNpCmF7ZaAeabUgXrtP-1" edge="1">
          <mxGeometry relative="1" as="geometry"/>
        </mxCell>
        <mxCell id="izNpCmF7ZaAeabUgXrtP-20" value="DB" style="shape=cylinder;whiteSpace=wrap;html=1;boundedLbl=1;backgroundOutline=1;fillColor=#e3c800;strokeColor=#B09500;fontColor=#ffffff;" parent="1" vertex="1">
          <mxGeometry x="580" y="390" width="60" height="80" as="geometry"/>
        </mxCell>
        <mxCell id="izNpCmF7ZaAeabUgXrtP-21" value="智云警情下派系统" style="rounded=0;whiteSpace=wrap;html=1;fillColor=#f5f5f5;strokeColor=#666666;fontColor=#333333;" parent="1" vertex="1">
          <mxGeometry x="760" y="400" width="120" height="60" as="geometry"/>
        </mxCell>
        <mxCell id="izNpCmF7ZaAeabUgXrtP-32" value="" style="endArrow=classic;startArrow=classic;html=1;entryX=0;entryY=0.5;entryDx=0;entryDy=0;" parent="1" source="izNpCmF7ZaAeabUgXrtP-20" target="izNpCmF7ZaAeabUgXrtP-21" edge="1">
          <mxGeometry width="50" height="50" relative="1" as="geometry">
            <mxPoint x="800" y="510" as="sourcePoint"/>
            <mxPoint x="850" y="460" as="targetPoint"/>
          </mxGeometry>
        </mxCell>
      </root>
    </mxGraphModel>
  </diagram>
</mxfile>
